<svg width="330" height="101" viewBox="0 0 330 101" fill="none" xmlns="http://www.w3.org/2000/svg">
<path d="M41.9063 49.4991C42.7278 60.4655 40.1644 71.4708 40.9364 82.4407C41.2539 86.9523 42.213 91.5987 44.9717 95.2119C46.3511 97.0185 48.1725 98.5229 50.2937 99.383C52.4149 100.243 54.8406 100.431 57.0247 99.741C58.4616 99.287 59.7698 98.466 60.8399 97.4174C61.9099 96.3686 62.7445 95.096 63.3338 93.7266C64.5122 90.9878 64.6997 87.913 64.3455 84.9586C63.7773 80.2182 61.8814 75.737 59.8027 71.426C57.724 67.115 55.4318 62.8753 53.9836 58.3206C52.5354 53.7658 51.9729 48.7889 53.4145 44.232C54.1353 41.9536 55.3576 39.8149 57.0605 38.1185C58.7633 36.4221 60.9551 35.1817 63.3294 34.7164C65.0416 34.3809 66.8041 34.4468 68.5482 34.3754C70.2923 34.3041 72.0848 34.0771 73.601 33.2243C74.6543 32.632 75.5239 31.7634 76.2682 30.8196C77.0124 29.8757 77.6422 28.8506 78.3142 27.8555C78.9861 26.8604 79.7081 25.8861 80.6046 25.0811C81.5011 24.2761 82.5882 23.6437 83.7821 23.4345C85.0372 23.2147 86.3577 23.4801 87.4749 24.0853C88.5921 24.6906 89.5104 25.6222 90.1783 26.6926C91.5142 28.8335 91.8409 31.4392 91.8467 33.9528C91.8585 38.9675 90.7257 44.0233 91.6194 48.96C92.0662 51.4284 93.0477 53.85 94.7496 55.7132C95.6006 56.6448 96.6257 57.4274 97.775 57.9638C98.9244 58.5001 100.199 58.7865 101.47 58.7467C102.903 58.7018 104.313 58.2409 105.52 57.4777C106.727 56.7146 107.731 55.6548 108.47 54.4434C109.948 52.0207 110.334 49.0523 109.94 46.2521C109.545 43.4519 108.418 40.797 107.045 38.3149C105.673 35.8327 104.05 33.4946 102.571 31.0728C101.52 29.3533 100.52 27.5215 100.355 25.5207C100.273 24.5203 100.411 23.4919 100.839 22.5814C101.268 21.6709 101.998 20.8857 102.923 20.4653C103.529 20.1897 104.204 20.0745 104.871 20.0957C105.538 20.1169 106.197 20.2717 106.817 20.5142C108.058 20.9993 109.13 21.8218 110.141 22.6809C111.152 23.5399 112.127 24.4513 113.252 25.1605C114.376 25.8698 115.682 26.3733 117.015 26.3092C117.88 26.2676 118.72 25.989 119.493 25.6039C120.266 25.2188 120.979 24.7283 121.687 24.2358C122.394 23.7434 123.102 23.2457 123.866 22.8445C124.631 22.4433 125.459 22.1389 126.322 22.0611C127.668 21.9397 129.024 22.3834 130.155 23.1128C131.286 23.8423 132.212 24.8434 133.027 25.9065C134.657 28.0327 135.944 30.5001 138.122 32.0787C139.504 33.0807 141.217 33.664 142.931 33.5997C144.646 33.5355 146.346 32.7982 147.468 31.5185C148.247 30.63 148.731 29.5188 149.014 28.3779C149.297 27.237 149.389 26.0595 149.463 24.8873C149.537 23.715 149.594 22.5379 149.807 21.3823C150.02 20.2267 150.397 19.0843 151.063 18.1103C152.057 16.6559 153.661 15.6576 155.386 15.2275C157.11 14.7973 158.946 14.9087 160.662 15.3723C164.093 16.2994 166.972 18.5445 169.796 20.6778C174.269 24.0559 178.974 27.4041 181.933 32.1309C184.691 36.5355 185.7 41.8156 185.814 46.9904C185.929 52.1652 185.205 57.3169 184.749 62.4734C184.494 65.3678 184.333 68.3568 185.278 71.1086C185.751 72.4846 186.504 73.7809 187.561 74.7931C188.617 75.8053 189.988 76.5211 191.451 76.6944C192.659 76.8373 193.9 76.609 195.004 76.1058C196.109 75.6026 197.078 74.8316 197.864 73.9164C199.436 72.0861 200.256 69.7335 200.702 67.3756C201.623 62.5061 201.077 57.4667 199.95 52.6395C198.823 47.8124 197.126 43.1357 195.709 38.3833C194.574 34.5748 193.614 30.547 194.466 26.6674C194.892 24.7276 195.785 22.8638 197.183 21.435C198.58 20.0063 200.501 19.04 202.512 18.9476C204.156 18.872 205.784 19.3698 207.249 20.1094C208.714 20.8491 210.039 21.8258 211.37 22.7807C212.701 23.7356 214.055 24.6798 215.557 25.3431C217.059 26.0065 218.733 26.3787 220.36 26.1348C222.271 25.8484 223.945 24.7538 225.524 23.6548C227.102 22.5559 228.712 21.399 230.592 20.9548C232.096 20.5993 233.706 20.7333 235.154 21.2719C236.601 21.8106 237.886 22.7449 238.888 23.9074C240.892 26.2325 241.713 29.3934 241.602 32.4424C241.492 35.4913 240.518 38.4522 239.273 41.2454C238.028 44.0385 236.507 46.7039 235.215 49.4764C232.522 55.2571 230.836 61.5749 231.014 67.9336C231.096 70.8315 231.583 73.7762 232.963 76.3358C233.654 77.6156 234.565 78.7866 235.688 79.7224C236.81 80.6583 238.148 81.3548 239.582 81.6738C242.06 82.225 244.742 81.6006 246.829 80.1724C248.916 78.7441 250.418 76.5601 251.191 74.1741C252.08 71.4281 252.037 68.4625 251.598 65.6125C251.159 62.7625 250.339 59.9853 249.692 57.174C248.338 51.2859 247.75 45.144 248.847 39.2042C249.945 33.2643 252.84 27.5228 257.565 23.6818C260.108 21.6144 263.154 20.1267 266.391 19.5158C269.629 18.905 273.053 19.188 276.093 20.4449C277.974 21.223 279.681 22.3521 281.407 23.4237C283.134 24.4954 284.918 25.5268 286.881 26.077C290.328 27.0438 294.077 26.4348 297.375 25.0513C300.674 23.6677 303.596 21.5543 306.449 19.4149C314.596 13.305 322.458 6.82413 330 0L0 0.735081C11.2242 3.42817 21.533 9.70585 29.0004 18.3953C36.4678 27.0847 41.0555 38.1412 41.9063 49.4991Z" fill="#724724"/>
</svg>
